<mxfile host="app.diagrams.net" modified="2024-01-13T14:02:04.195Z" agent="Mozilla/5.0 (Windows NT 10.0; Win64; x64) AppleWebKit/537.36 (KHTML, like Gecko) Chrome/120.0.0.0 Safari/537.36" etag="pFI5q0Gwg03WH8ORBfqT" version="22.1.18" type="github" pages="2">
  <diagram id="iMI9avvByJYGrVJphxww" name="配置表">
    <mxGraphModel dx="1434" dy="746" grid="1" gridSize="10" guides="1" tooltips="1" connect="1" arrows="1" fold="1" page="1" pageScale="1" pageWidth="827" pageHeight="1169" background="#F4F1DE" math="0" shadow="0">
      <root>
        <mxCell id="0" />
        <mxCell id="1" parent="0" />
        <mxCell id="czFrzgMa1SwxG-ueNA2U-42" style="edgeStyle=none;rounded=1;orthogonalLoop=1;jettySize=auto;html=1;elbow=vertical;labelBackgroundColor=#F4F1DE;strokeColor=#E07A5F;fontColor=#393C56;" parent="1" source="czFrzgMa1SwxG-ueNA2U-38" target="czFrzgMa1SwxG-ueNA2U-41" edge="1">
          <mxGeometry relative="1" as="geometry" />
        </mxCell>
        <mxCell id="czFrzgMa1SwxG-ueNA2U-41" value="长文本、日期、时间不受限" style="text;html=1;strokeColor=none;fillColor=none;align=center;verticalAlign=middle;whiteSpace=wrap;rounded=0;fontColor=#393C56;" parent="1" vertex="1">
          <mxGeometry x="640" y="925" width="160" height="30" as="geometry" />
        </mxCell>
        <mxCell id="czFrzgMa1SwxG-ueNA2U-53" value="" style="edgeStyle=none;rounded=1;orthogonalLoop=1;jettySize=auto;html=1;elbow=vertical;labelBackgroundColor=#F4F1DE;strokeColor=#E07A5F;fontColor=#393C56;" parent="1" source="czFrzgMa1SwxG-ueNA2U-50" target="czFrzgMa1SwxG-ueNA2U-52" edge="1">
          <mxGeometry relative="1" as="geometry" />
        </mxCell>
        <mxCell id="czFrzgMa1SwxG-ueNA2U-52" value="时间、日期" style="text;html=1;strokeColor=none;fillColor=none;align=center;verticalAlign=middle;whiteSpace=wrap;rounded=0;fontColor=#393C56;" parent="1" vertex="1">
          <mxGeometry x="640" y="990" width="160" height="30" as="geometry" />
        </mxCell>
        <mxCell id="czFrzgMa1SwxG-ueNA2U-55" value="" style="edgeStyle=none;rounded=1;orthogonalLoop=1;jettySize=auto;html=1;elbow=vertical;labelBackgroundColor=#F4F1DE;strokeColor=#E07A5F;fontColor=#393C56;" parent="1" source="czFrzgMa1SwxG-ueNA2U-56" target="czFrzgMa1SwxG-ueNA2U-52" edge="1">
          <mxGeometry relative="1" as="geometry">
            <mxPoint x="640" y="1020" as="targetPoint" />
          </mxGeometry>
        </mxCell>
        <mxCell id="czFrzgMa1SwxG-ueNA2U-70" style="edgeStyle=none;shape=connector;rounded=1;orthogonalLoop=1;jettySize=auto;html=1;labelBackgroundColor=#F4F1DE;fontFamily=Helvetica;fontSize=11;fontColor=#393C56;endArrow=classic;strokeColor=#E07A5F;elbow=vertical;" parent="1" source="czFrzgMa1SwxG-ueNA2U-69" target="czFrzgMa1SwxG-ueNA2U-52" edge="1">
          <mxGeometry relative="1" as="geometry" />
        </mxCell>
        <mxCell id="G_joC-zrVO_ibv1kbdwe-1" value="配置/使用页：打开" style="swimlane;fontStyle=0;childLayout=stackLayout;horizontal=1;startSize=26;fillColor=none;horizontalStack=0;resizeParent=1;resizeParentMax=0;resizeLast=0;collapsible=1;marginBottom=0;strokeColor=#E07A5F;fontColor=#393C56;" parent="1" vertex="1">
          <mxGeometry x="430" y="100" width="140" height="90" as="geometry" />
        </mxCell>
        <mxCell id="G_joC-zrVO_ibv1kbdwe-2" value="所有分组（ID、名）" style="text;strokeColor=none;fillColor=none;align=left;verticalAlign=top;spacingLeft=4;spacingRight=4;overflow=hidden;rotatable=0;points=[[0,0.5],[1,0.5]];portConstraint=eastwest;fontColor=#393C56;" parent="G_joC-zrVO_ibv1kbdwe-1" vertex="1">
          <mxGeometry y="26" width="140" height="26" as="geometry" />
        </mxCell>
        <mxCell id="G_joC-zrVO_ibv1kbdwe-3" value="当前/默认分组的数据：&#xa;前缀、名、值、类型等" style="text;strokeColor=none;fillColor=none;align=left;verticalAlign=top;spacingLeft=4;spacingRight=4;overflow=hidden;rotatable=0;points=[[0,0.5],[1,0.5]];portConstraint=eastwest;fontColor=#393C56;" parent="G_joC-zrVO_ibv1kbdwe-1" vertex="1">
          <mxGeometry y="52" width="140" height="38" as="geometry" />
        </mxCell>
        <mxCell id="G_joC-zrVO_ibv1kbdwe-6" value="配置页：保存(增、删、改)" style="swimlane;fontStyle=0;childLayout=stackLayout;horizontal=1;startSize=26;fillColor=none;horizontalStack=0;resizeParent=1;resizeParentMax=0;resizeLast=0;collapsible=1;marginBottom=0;strokeColor=#E07A5F;fontColor=#393C56;" parent="1" vertex="1">
          <mxGeometry x="430" y="210" width="140" height="90" as="geometry" />
        </mxCell>
        <mxCell id="G_joC-zrVO_ibv1kbdwe-7" value="[&#xa;更新条目A的完整数据,&#xa;更新条目B的完整数据, ...&#xa;]" style="text;strokeColor=none;fillColor=none;align=left;verticalAlign=top;spacingLeft=4;spacingRight=4;overflow=hidden;rotatable=0;points=[[0,0.5],[1,0.5]];portConstraint=eastwest;fontColor=#393C56;" parent="G_joC-zrVO_ibv1kbdwe-6" vertex="1">
          <mxGeometry y="26" width="140" height="64" as="geometry" />
        </mxCell>
        <mxCell id="G_joC-zrVO_ibv1kbdwe-10" value="配置页：纯删除" style="swimlane;fontStyle=0;childLayout=stackLayout;horizontal=1;startSize=26;fillColor=none;horizontalStack=0;resizeParent=1;resizeParentMax=0;resizeLast=0;collapsible=1;marginBottom=0;strokeColor=#E07A5F;fontColor=#393C56;" parent="1" vertex="1">
          <mxGeometry x="430" y="330" width="140" height="70" as="geometry" />
        </mxCell>
        <mxCell id="G_joC-zrVO_ibv1kbdwe-11" value="[要删除条目A的ID、要&#xa;删除条目B的ID、...]" style="text;strokeColor=none;fillColor=none;align=left;verticalAlign=top;spacingLeft=4;spacingRight=4;overflow=hidden;rotatable=0;points=[[0,0.5],[1,0.5]];portConstraint=eastwest;fontColor=#393C56;" parent="G_joC-zrVO_ibv1kbdwe-10" vertex="1">
          <mxGeometry y="26" width="140" height="44" as="geometry" />
        </mxCell>
        <mxCell id="G_joC-zrVO_ibv1kbdwe-33" style="edgeStyle=none;rounded=0;orthogonalLoop=1;jettySize=auto;html=1;labelBackgroundColor=#F4F1DE;strokeColor=#E07A5F;fontColor=#393C56;" parent="1" source="G_joC-zrVO_ibv1kbdwe-32" target="G_joC-zrVO_ibv1kbdwe-7" edge="1">
          <mxGeometry relative="1" as="geometry" />
        </mxCell>
        <mxCell id="G_joC-zrVO_ibv1kbdwe-32" value="为避免同时更新&lt;br&gt;&lt;b&gt;后端&lt;/b&gt;记得保存时加一下锁&lt;br&gt;&lt;b&gt;前端&lt;/b&gt;别刷新页面" style="text;html=1;strokeColor=none;fillColor=none;align=center;verticalAlign=middle;whiteSpace=wrap;rounded=0;fontColor=#393C56;" parent="1" vertex="1">
          <mxGeometry x="607" y="240" width="150" height="50" as="geometry" />
        </mxCell>
        <mxCell id="G_joC-zrVO_ibv1kbdwe-35" value="" style="edgeStyle=none;rounded=0;orthogonalLoop=1;jettySize=auto;html=1;labelBackgroundColor=#F4F1DE;strokeColor=#E07A5F;fontColor=#393C56;" parent="1" source="G_joC-zrVO_ibv1kbdwe-34" target="G_joC-zrVO_ibv1kbdwe-7" edge="1">
          <mxGeometry relative="1" as="geometry" />
        </mxCell>
        <mxCell id="G_joC-zrVO_ibv1kbdwe-34" value="根据有无 ID 判断新增/更新" style="text;html=1;strokeColor=none;fillColor=none;align=center;verticalAlign=middle;whiteSpace=wrap;rounded=0;fontColor=#393C56;" parent="1" vertex="1">
          <mxGeometry x="607" y="210" width="150" height="30" as="geometry" />
        </mxCell>
        <mxCell id="G_joC-zrVO_ibv1kbdwe-36" value="动作日志要不要加一加？&lt;br&gt;反正也是冷数据" style="text;html=1;strokeColor=none;fillColor=none;align=center;verticalAlign=middle;whiteSpace=wrap;rounded=0;fontColor=#393C56;" parent="1" vertex="1">
          <mxGeometry x="607" y="330" width="150" height="40" as="geometry" />
        </mxCell>
        <mxCell id="G_joC-zrVO_ibv1kbdwe-44" value="细化设计，功能层面、代码结构层面、库表结构等&lt;br&gt;&lt;br&gt;任务拆分、时间预估" style="text;html=1;strokeColor=none;fillColor=none;align=center;verticalAlign=middle;whiteSpace=wrap;rounded=0;fontColor=#393C56;" parent="1" vertex="1">
          <mxGeometry x="480" y="536.25" width="170" height="73.75" as="geometry" />
        </mxCell>
        <mxCell id="G_joC-zrVO_ibv1kbdwe-45" value="是否缓存？" style="text;html=1;strokeColor=none;fillColor=none;align=center;verticalAlign=middle;whiteSpace=wrap;rounded=0;fontColor=#393C56;" parent="1" vertex="1">
          <mxGeometry x="607" y="370" width="150" height="30" as="geometry" />
        </mxCell>
        <mxCell id="G_joC-zrVO_ibv1kbdwe-48" value="分组/前缀：增删改" style="swimlane;fontStyle=0;childLayout=stackLayout;horizontal=1;startSize=26;fillColor=none;horizontalStack=0;resizeParent=1;resizeParentMax=0;resizeLast=0;collapsible=1;marginBottom=0;strokeColor=#E07A5F;fontColor=#393C56;" parent="1" vertex="1">
          <mxGeometry x="430" y="20" width="140" height="50" as="geometry" />
        </mxCell>
        <mxCell id="G_joC-zrVO_ibv1kbdwe-50" value="TBD" style="text;strokeColor=none;fillColor=none;align=left;verticalAlign=top;spacingLeft=4;spacingRight=4;overflow=hidden;rotatable=0;points=[[0,0.5],[1,0.5]];portConstraint=eastwest;fontColor=#393C56;" parent="G_joC-zrVO_ibv1kbdwe-48" vertex="1">
          <mxGeometry y="26" width="140" height="24" as="geometry" />
        </mxCell>
        <mxCell id="G_joC-zrVO_ibv1kbdwe-51" value="" style="shape=internalStorage;whiteSpace=wrap;html=1;backgroundOutline=1;rounded=0;sketch=0;fillColor=#F2CC8F;strokeColor=#E07A5F;fontColor=#393C56;" parent="1" vertex="1">
          <mxGeometry x="232.5" y="280" width="165" height="240" as="geometry" />
        </mxCell>
        <mxCell id="czFrzgMa1SwxG-ueNA2U-2" value="语义化名" style="rounded=1;whiteSpace=wrap;html=1;fillColor=#F2CC8F;strokeColor=#E07A5F;fontColor=#393C56;" parent="1" vertex="1">
          <mxGeometry x="265" y="380" width="120" height="60" as="geometry" />
        </mxCell>
        <mxCell id="czFrzgMa1SwxG-ueNA2U-3" value="类型&lt;br&gt;&lt;br&gt;分组/前缀" style="rounded=1;whiteSpace=wrap;html=1;fillColor=#F2CC8F;strokeColor=#E07A5F;fontColor=#393C56;" parent="1" vertex="1">
          <mxGeometry x="265" y="450" width="120" height="60" as="geometry" />
        </mxCell>
        <mxCell id="G_joC-zrVO_ibv1kbdwe-52" value="" style="shape=internalStorage;whiteSpace=wrap;html=1;backgroundOutline=1;rounded=0;sketch=0;fillColor=#F2CC8F;strokeColor=#E07A5F;fontColor=#393C56;" parent="1" vertex="1">
          <mxGeometry x="40" y="170" width="165" height="630" as="geometry" />
        </mxCell>
        <mxCell id="czFrzgMa1SwxG-ueNA2U-4" value="名" style="rounded=1;whiteSpace=wrap;html=1;fillColor=#F2CC8F;strokeColor=#E07A5F;fontColor=#393C56;" parent="1" vertex="1">
          <mxGeometry x="72.5" y="410" width="120" height="60" as="geometry" />
        </mxCell>
        <mxCell id="czFrzgMa1SwxG-ueNA2U-5" value="值" style="rounded=1;whiteSpace=wrap;html=1;fillColor=#F2CC8F;strokeColor=#E07A5F;fontColor=#393C56;" parent="1" vertex="1">
          <mxGeometry x="72.5" y="480" width="120" height="60" as="geometry" />
        </mxCell>
        <mxCell id="czFrzgMa1SwxG-ueNA2U-34" value="解释&lt;br&gt;&lt;br&gt;选填" style="rounded=1;whiteSpace=wrap;html=1;fillColor=#F2CC8F;strokeColor=#E07A5F;fontColor=#393C56;" parent="1" vertex="1">
          <mxGeometry x="72.5" y="550" width="120" height="60" as="geometry" />
        </mxCell>
        <mxCell id="czFrzgMa1SwxG-ueNA2U-9" style="rounded=1;orthogonalLoop=1;jettySize=auto;html=1;labelBackgroundColor=#F4F1DE;strokeColor=#E07A5F;fontColor=#393C56;" parent="1" source="czFrzgMa1SwxG-ueNA2U-1" target="czFrzgMa1SwxG-ueNA2U-8" edge="1">
          <mxGeometry relative="1" as="geometry" />
        </mxCell>
        <mxCell id="czFrzgMa1SwxG-ueNA2U-11" style="rounded=1;orthogonalLoop=1;jettySize=auto;html=1;labelBackgroundColor=#F4F1DE;strokeColor=#E07A5F;fontColor=#393C56;" parent="1" source="czFrzgMa1SwxG-ueNA2U-1" target="czFrzgMa1SwxG-ueNA2U-10" edge="1">
          <mxGeometry relative="1" as="geometry" />
        </mxCell>
        <mxCell id="czFrzgMa1SwxG-ueNA2U-13" style="rounded=1;orthogonalLoop=1;jettySize=auto;html=1;labelBackgroundColor=#F4F1DE;strokeColor=#E07A5F;fontColor=#393C56;" parent="1" source="czFrzgMa1SwxG-ueNA2U-1" target="czFrzgMa1SwxG-ueNA2U-12" edge="1">
          <mxGeometry relative="1" as="geometry" />
        </mxCell>
        <mxCell id="czFrzgMa1SwxG-ueNA2U-15" style="rounded=1;orthogonalLoop=1;jettySize=auto;html=1;labelBackgroundColor=#F4F1DE;strokeColor=#E07A5F;fontColor=#393C56;" parent="1" source="czFrzgMa1SwxG-ueNA2U-1" target="czFrzgMa1SwxG-ueNA2U-14" edge="1">
          <mxGeometry relative="1" as="geometry" />
        </mxCell>
        <mxCell id="czFrzgMa1SwxG-ueNA2U-17" style="rounded=1;orthogonalLoop=1;jettySize=auto;html=1;labelBackgroundColor=#F4F1DE;strokeColor=#E07A5F;fontColor=#393C56;" parent="1" source="czFrzgMa1SwxG-ueNA2U-1" target="czFrzgMa1SwxG-ueNA2U-16" edge="1">
          <mxGeometry relative="1" as="geometry" />
        </mxCell>
        <mxCell id="czFrzgMa1SwxG-ueNA2U-20" style="rounded=1;orthogonalLoop=1;jettySize=auto;html=1;labelBackgroundColor=#F4F1DE;strokeColor=#E07A5F;fontColor=#393C56;" parent="1" source="czFrzgMa1SwxG-ueNA2U-1" target="czFrzgMa1SwxG-ueNA2U-18" edge="1">
          <mxGeometry relative="1" as="geometry" />
        </mxCell>
        <mxCell id="czFrzgMa1SwxG-ueNA2U-23" style="edgeStyle=none;rounded=1;orthogonalLoop=1;jettySize=auto;html=1;elbow=vertical;labelBackgroundColor=#F4F1DE;strokeColor=#E07A5F;fontColor=#393C56;" parent="1" source="czFrzgMa1SwxG-ueNA2U-1" target="czFrzgMa1SwxG-ueNA2U-21" edge="1">
          <mxGeometry relative="1" as="geometry" />
        </mxCell>
        <mxCell id="czFrzgMa1SwxG-ueNA2U-25" style="edgeStyle=none;rounded=1;orthogonalLoop=1;jettySize=auto;html=1;elbow=vertical;labelBackgroundColor=#F4F1DE;strokeColor=#E07A5F;fontColor=#393C56;" parent="1" source="czFrzgMa1SwxG-ueNA2U-1" target="czFrzgMa1SwxG-ueNA2U-24" edge="1">
          <mxGeometry relative="1" as="geometry" />
        </mxCell>
        <mxCell id="czFrzgMa1SwxG-ueNA2U-8" value="短文本" style="ellipse;whiteSpace=wrap;html=1;rounded=1;fillColor=#F2CC8F;strokeColor=#E07A5F;fontColor=#393C56;" parent="1" vertex="1">
          <mxGeometry x="227" y="530" width="70" height="40" as="geometry" />
        </mxCell>
        <mxCell id="czFrzgMa1SwxG-ueNA2U-10" value="长文本" style="ellipse;whiteSpace=wrap;html=1;rounded=1;fillColor=#F2CC8F;strokeColor=#E07A5F;fontColor=#393C56;" parent="1" vertex="1">
          <mxGeometry x="297" y="610" width="70" height="40" as="geometry" />
        </mxCell>
        <mxCell id="czFrzgMa1SwxG-ueNA2U-12" value="数值" style="ellipse;whiteSpace=wrap;html=1;rounded=1;fillColor=#F2CC8F;strokeColor=#E07A5F;fontColor=#393C56;" parent="1" vertex="1">
          <mxGeometry x="297" y="650" width="70" height="40" as="geometry" />
        </mxCell>
        <mxCell id="czFrzgMa1SwxG-ueNA2U-14" value="日期" style="ellipse;whiteSpace=wrap;html=1;rounded=1;fillColor=#F2CC8F;strokeColor=#E07A5F;fontColor=#393C56;" parent="1" vertex="1">
          <mxGeometry x="297" y="690" width="70" height="40" as="geometry" />
        </mxCell>
        <mxCell id="czFrzgMa1SwxG-ueNA2U-16" value="时间日期" style="ellipse;whiteSpace=wrap;html=1;rounded=1;fillColor=#F2CC8F;strokeColor=#E07A5F;fontColor=#393C56;" parent="1" vertex="1">
          <mxGeometry x="297" y="730" width="70" height="40" as="geometry" />
        </mxCell>
        <mxCell id="czFrzgMa1SwxG-ueNA2U-18" value="时间" style="ellipse;whiteSpace=wrap;html=1;rounded=1;fillColor=#F2CC8F;strokeColor=#E07A5F;fontColor=#393C56;" parent="1" vertex="1">
          <mxGeometry x="227" y="730" width="70" height="40" as="geometry" />
        </mxCell>
        <mxCell id="czFrzgMa1SwxG-ueNA2U-21" value="枚举" style="ellipse;whiteSpace=wrap;html=1;rounded=1;fillColor=#F2CC8F;strokeColor=#E07A5F;fontColor=#393C56;" parent="1" vertex="1">
          <mxGeometry x="297" y="530" width="70" height="40" as="geometry" />
        </mxCell>
        <mxCell id="czFrzgMa1SwxG-ueNA2U-24" value="JSON" style="ellipse;whiteSpace=wrap;html=1;rounded=1;fillColor=#F2CC8F;strokeColor=#E07A5F;fontColor=#393C56;" parent="1" vertex="1">
          <mxGeometry x="298" y="570" width="70" height="40" as="geometry" />
        </mxCell>
        <mxCell id="czFrzgMa1SwxG-ueNA2U-1" value="值类型" style="rounded=1;whiteSpace=wrap;html=1;fillColor=#F2CC8F;strokeColor=#E07A5F;fontColor=#393C56;" parent="1" vertex="1">
          <mxGeometry x="72.5" y="620" width="120" height="60" as="geometry" />
        </mxCell>
        <mxCell id="czFrzgMa1SwxG-ueNA2U-35" value="状态&lt;br&gt;&lt;br&gt;2:14;84:15..." style="rounded=1;whiteSpace=wrap;html=1;fillColor=#F2CC8F;strokeColor=#E07A5F;fontColor=#393C56;" parent="1" vertex="1">
          <mxGeometry x="72.5" y="690" width="120" height="60" as="geometry" />
        </mxCell>
        <mxCell id="G_joC-zrVO_ibv1kbdwe-54" value="" style="shape=internalStorage;whiteSpace=wrap;html=1;backgroundOutline=1;rounded=0;sketch=0;fillColor=#F2CC8F;strokeColor=#E07A5F;fontColor=#393C56;" parent="1" vertex="1">
          <mxGeometry x="232.5" y="20" width="165" height="240" as="geometry" />
        </mxCell>
        <mxCell id="G_joC-zrVO_ibv1kbdwe-55" value="String&amp;nbsp;ID" style="rounded=1;whiteSpace=wrap;html=1;fillColor=#F2CC8F;strokeColor=#E07A5F;fontColor=#393C56;" parent="1" vertex="1">
          <mxGeometry x="265" y="50" width="120" height="60" as="geometry" />
        </mxCell>
        <mxCell id="G_joC-zrVO_ibv1kbdwe-56" value="适用值类型" style="rounded=1;whiteSpace=wrap;html=1;fillColor=#F2CC8F;strokeColor=#E07A5F;fontColor=#393C56;" parent="1" vertex="1">
          <mxGeometry x="265" y="120" width="120" height="60" as="geometry" />
        </mxCell>
        <mxCell id="czFrzgMa1SwxG-ueNA2U-27" style="edgeStyle=none;rounded=1;orthogonalLoop=1;jettySize=auto;html=1;elbow=vertical;labelBackgroundColor=#F4F1DE;strokeColor=#E07A5F;fontColor=#393C56;" parent="1" source="czFrzgMa1SwxG-ueNA2U-35" target="czFrzgMa1SwxG-ueNA2U-26" edge="1">
          <mxGeometry relative="1" as="geometry" />
        </mxCell>
        <mxCell id="czFrzgMa1SwxG-ueNA2U-29" style="edgeStyle=none;rounded=1;orthogonalLoop=1;jettySize=auto;html=1;elbow=vertical;labelBackgroundColor=#F4F1DE;strokeColor=#E07A5F;fontColor=#393C56;" parent="1" source="czFrzgMa1SwxG-ueNA2U-35" target="czFrzgMa1SwxG-ueNA2U-28" edge="1">
          <mxGeometry relative="1" as="geometry" />
        </mxCell>
        <mxCell id="czFrzgMa1SwxG-ueNA2U-26" value="1：必填" style="ellipse;whiteSpace=wrap;html=1;rounded=1;fillColor=#F2CC8F;strokeColor=#E07A5F;fontColor=#393C56;" parent="1" vertex="1">
          <mxGeometry x="280" y="843.75" width="70" height="40" as="geometry" />
        </mxCell>
        <mxCell id="czFrzgMa1SwxG-ueNA2U-28" value="2：清理前后空格" style="ellipse;whiteSpace=wrap;html=1;rounded=1;fillColor=#F2CC8F;strokeColor=#E07A5F;fontColor=#393C56;" parent="1" vertex="1">
          <mxGeometry x="280" y="883.75" width="70" height="40" as="geometry" />
        </mxCell>
        <mxCell id="czFrzgMa1SwxG-ueNA2U-44" style="edgeStyle=none;rounded=1;orthogonalLoop=1;jettySize=auto;html=1;elbow=vertical;labelBackgroundColor=#F4F1DE;strokeColor=#E07A5F;fontColor=#393C56;" parent="1" source="czFrzgMa1SwxG-ueNA2U-35" target="czFrzgMa1SwxG-ueNA2U-46" edge="1">
          <mxGeometry relative="1" as="geometry">
            <mxPoint x="215" y="1140" as="targetPoint" />
          </mxGeometry>
        </mxCell>
        <mxCell id="czFrzgMa1SwxG-ueNA2U-48" style="edgeStyle=none;rounded=1;orthogonalLoop=1;jettySize=auto;html=1;elbow=vertical;labelBackgroundColor=#F4F1DE;strokeColor=#E07A5F;fontColor=#393C56;" parent="1" source="czFrzgMa1SwxG-ueNA2U-35" target="czFrzgMa1SwxG-ueNA2U-47" edge="1">
          <mxGeometry relative="1" as="geometry" />
        </mxCell>
        <mxCell id="czFrzgMa1SwxG-ueNA2U-65" style="edgeStyle=none;rounded=1;orthogonalLoop=1;jettySize=auto;html=1;elbow=vertical;labelBackgroundColor=#F4F1DE;strokeColor=#E07A5F;fontColor=#393C56;" parent="1" source="czFrzgMa1SwxG-ueNA2U-35" target="czFrzgMa1SwxG-ueNA2U-49" edge="1">
          <mxGeometry relative="1" as="geometry" />
        </mxCell>
        <mxCell id="czFrzgMa1SwxG-ueNA2U-38" value="3：长度受限" style="ellipse;whiteSpace=wrap;html=1;rounded=1;fillColor=#F2CC8F;strokeColor=#E07A5F;fontColor=#393C56;" parent="1" vertex="1">
          <mxGeometry x="280" y="923.75" width="70" height="40" as="geometry" />
        </mxCell>
        <mxCell id="czFrzgMa1SwxG-ueNA2U-46" value="maxLength:最大长度" style="shape=hexagon;perimeter=hexagonPerimeter2;whiteSpace=wrap;html=1;fixedSize=1;rounded=1;fillColor=#F2CC8F;strokeColor=#E07A5F;fontColor=#393C56;" parent="1" vertex="1">
          <mxGeometry x="40" y="880" width="140" height="30" as="geometry" />
        </mxCell>
        <mxCell id="czFrzgMa1SwxG-ueNA2U-47" value="minLength:最小长度" style="shape=hexagon;perimeter=hexagonPerimeter2;whiteSpace=wrap;html=1;fixedSize=1;rounded=1;fillColor=#F2CC8F;strokeColor=#E07A5F;fontColor=#393C56;" parent="1" vertex="1">
          <mxGeometry x="40" y="830" width="140" height="30" as="geometry" />
        </mxCell>
        <mxCell id="czFrzgMa1SwxG-ueNA2U-49" value="after:晚于某时间" style="shape=hexagon;perimeter=hexagonPerimeter2;whiteSpace=wrap;html=1;fixedSize=1;rounded=1;fillColor=#F2CC8F;strokeColor=#E07A5F;fontColor=#393C56;" parent="1" vertex="1">
          <mxGeometry x="40" y="923.75" width="140" height="30" as="geometry" />
        </mxCell>
        <mxCell id="czFrzgMa1SwxG-ueNA2U-50" value="4：需早于&lt;br&gt;当前" style="ellipse;whiteSpace=wrap;html=1;rounded=1;fillColor=#F2CC8F;strokeColor=#E07A5F;fontColor=#393C56;" parent="1" vertex="1">
          <mxGeometry x="280" y="963.75" width="70" height="40" as="geometry" />
        </mxCell>
        <mxCell id="czFrzgMa1SwxG-ueNA2U-56" value="5：需晚于&lt;br&gt;当前" style="ellipse;whiteSpace=wrap;html=1;rounded=1;fillColor=#F2CC8F;strokeColor=#E07A5F;fontColor=#393C56;" parent="1" vertex="1">
          <mxGeometry x="280" y="1003.75" width="70" height="40" as="geometry" />
        </mxCell>
        <mxCell id="czFrzgMa1SwxG-ueNA2U-59" value="after:2021/04/05,22:04" style="text;html=1;strokeColor=none;fillColor=none;align=center;verticalAlign=middle;whiteSpace=wrap;rounded=0;fontColor=#393C56;" parent="1" vertex="1">
          <mxGeometry x="112.5" y="1003.75" width="160" height="30" as="geometry" />
        </mxCell>
        <mxCell id="czFrzgMa1SwxG-ueNA2U-61" value="after:22:04" style="text;html=1;strokeColor=none;fillColor=none;align=center;verticalAlign=middle;whiteSpace=wrap;rounded=0;fontColor=#393C56;" parent="1" vertex="1">
          <mxGeometry x="112.5" y="1033.75" width="160" height="30" as="geometry" />
        </mxCell>
        <mxCell id="czFrzgMa1SwxG-ueNA2U-63" value="after:2021/04/05" style="text;html=1;strokeColor=none;fillColor=none;align=center;verticalAlign=middle;whiteSpace=wrap;rounded=0;fontColor=#393C56;" parent="1" vertex="1">
          <mxGeometry x="112.5" y="1063.75" width="160" height="30" as="geometry" />
        </mxCell>
        <mxCell id="czFrzgMa1SwxG-ueNA2U-66" value="before:早于某时间" style="shape=hexagon;perimeter=hexagonPerimeter2;whiteSpace=wrap;html=1;fixedSize=1;rounded=1;fillColor=#F2CC8F;strokeColor=#E07A5F;fontColor=#393C56;" parent="1" vertex="1">
          <mxGeometry x="40" y="968.75" width="140" height="30" as="geometry" />
        </mxCell>
        <mxCell id="czFrzgMa1SwxG-ueNA2U-67" style="edgeStyle=none;rounded=1;orthogonalLoop=1;jettySize=auto;html=1;elbow=vertical;labelBackgroundColor=#F4F1DE;strokeColor=#E07A5F;fontColor=#393C56;" parent="1" source="czFrzgMa1SwxG-ueNA2U-35" target="czFrzgMa1SwxG-ueNA2U-66" edge="1">
          <mxGeometry relative="1" as="geometry" />
        </mxCell>
        <mxCell id="czFrzgMa1SwxG-ueNA2U-69" value="6：可等于&lt;br&gt;当前" style="ellipse;whiteSpace=wrap;html=1;rounded=1;fillColor=#F2CC8F;strokeColor=#E07A5F;fontColor=#393C56;" parent="1" vertex="1">
          <mxGeometry x="280" y="1043.75" width="70" height="40" as="geometry" />
        </mxCell>
        <mxCell id="czFrzgMa1SwxG-ueNA2U-71" style="edgeStyle=none;shape=connector;rounded=1;orthogonalLoop=1;jettySize=auto;html=1;labelBackgroundColor=#F4F1DE;fontFamily=Helvetica;fontSize=11;fontColor=#393C56;endArrow=classic;strokeColor=#E07A5F;elbow=vertical;" parent="1" source="czFrzgMa1SwxG-ueNA2U-35" target="czFrzgMa1SwxG-ueNA2U-69" edge="1">
          <mxGeometry relative="1" as="geometry" />
        </mxCell>
        <mxCell id="czFrzgMa1SwxG-ueNA2U-39" style="edgeStyle=none;rounded=1;orthogonalLoop=1;jettySize=auto;html=1;elbow=vertical;labelBackgroundColor=#F4F1DE;strokeColor=#E07A5F;fontColor=#393C56;" parent="1" source="czFrzgMa1SwxG-ueNA2U-35" target="czFrzgMa1SwxG-ueNA2U-38" edge="1">
          <mxGeometry relative="1" as="geometry" />
        </mxCell>
        <mxCell id="czFrzgMa1SwxG-ueNA2U-51" style="edgeStyle=none;rounded=1;orthogonalLoop=1;jettySize=auto;html=1;elbow=vertical;labelBackgroundColor=#F4F1DE;strokeColor=#E07A5F;fontColor=#393C56;" parent="1" source="czFrzgMa1SwxG-ueNA2U-35" target="czFrzgMa1SwxG-ueNA2U-50" edge="1">
          <mxGeometry relative="1" as="geometry" />
        </mxCell>
        <mxCell id="czFrzgMa1SwxG-ueNA2U-58" style="edgeStyle=none;rounded=1;orthogonalLoop=1;jettySize=auto;html=1;elbow=vertical;labelBackgroundColor=#F4F1DE;strokeColor=#E07A5F;fontColor=#393C56;" parent="1" source="czFrzgMa1SwxG-ueNA2U-35" target="czFrzgMa1SwxG-ueNA2U-56" edge="1">
          <mxGeometry relative="1" as="geometry" />
        </mxCell>
        <mxCell id="czFrzgMa1SwxG-ueNA2U-60" style="edgeStyle=none;rounded=1;orthogonalLoop=1;jettySize=auto;html=1;elbow=vertical;labelBackgroundColor=#F4F1DE;strokeColor=#E07A5F;fontColor=#393C56;" parent="1" source="czFrzgMa1SwxG-ueNA2U-49" target="czFrzgMa1SwxG-ueNA2U-59" edge="1">
          <mxGeometry relative="1" as="geometry" />
        </mxCell>
        <mxCell id="czFrzgMa1SwxG-ueNA2U-62" style="edgeStyle=none;rounded=1;orthogonalLoop=1;jettySize=auto;html=1;elbow=vertical;labelBackgroundColor=#F4F1DE;strokeColor=#E07A5F;fontColor=#393C56;" parent="1" source="czFrzgMa1SwxG-ueNA2U-49" target="czFrzgMa1SwxG-ueNA2U-61" edge="1">
          <mxGeometry relative="1" as="geometry" />
        </mxCell>
        <mxCell id="czFrzgMa1SwxG-ueNA2U-64" style="edgeStyle=none;rounded=1;orthogonalLoop=1;jettySize=auto;html=1;elbow=vertical;labelBackgroundColor=#F4F1DE;strokeColor=#E07A5F;fontColor=#393C56;" parent="1" source="czFrzgMa1SwxG-ueNA2U-49" target="czFrzgMa1SwxG-ueNA2U-63" edge="1">
          <mxGeometry relative="1" as="geometry" />
        </mxCell>
        <mxCell id="G_joC-zrVO_ibv1kbdwe-58" value="前缀 ID" style="rounded=1;whiteSpace=wrap;html=1;fillColor=#F2CC8F;strokeColor=#E07A5F;fontColor=#393C56;" parent="1" vertex="1">
          <mxGeometry x="72.5" y="340" width="120" height="60" as="geometry" />
        </mxCell>
        <mxCell id="G_joC-zrVO_ibv1kbdwe-59" value="组 ID" style="rounded=1;whiteSpace=wrap;html=1;fillColor=#F2CC8F;strokeColor=#E07A5F;fontColor=#393C56;" parent="1" vertex="1">
          <mxGeometry x="72.5" y="270" width="120" height="60" as="geometry" />
        </mxCell>
        <mxCell id="G_joC-zrVO_ibv1kbdwe-60" value="解释" style="rounded=1;whiteSpace=wrap;html=1;fillColor=#F2CC8F;strokeColor=#E07A5F;fontColor=#393C56;" parent="1" vertex="1">
          <mxGeometry x="265" y="190" width="120" height="60" as="geometry" />
        </mxCell>
        <mxCell id="G_joC-zrVO_ibv1kbdwe-63" value="ID" style="rounded=1;whiteSpace=wrap;html=1;fillColor=#F2CC8F;strokeColor=#E07A5F;fontColor=#393C56;" parent="1" vertex="1">
          <mxGeometry x="265" y="310" width="120" height="60" as="geometry" />
        </mxCell>
        <mxCell id="G_joC-zrVO_ibv1kbdwe-64" value="ID" style="rounded=1;whiteSpace=wrap;html=1;fillColor=#F2CC8F;strokeColor=#E07A5F;fontColor=#393C56;" parent="1" vertex="1">
          <mxGeometry x="72.5" y="200" width="120" height="60" as="geometry" />
        </mxCell>
      </root>
    </mxGraphModel>
  </diagram>
  <diagram id="iDRmfnyt-0jMjBz2xm2R" name="Quant">
    <mxGraphModel dx="2261" dy="786" grid="1" gridSize="10" guides="1" tooltips="1" connect="1" arrows="1" fold="1" page="1" pageScale="1" pageWidth="827" pageHeight="1169" math="0" shadow="0">
      <root>
        <mxCell id="0" />
        <mxCell id="1" parent="0" />
        <mxCell id="1FqhIg_PzW6NsAXz2c-h-3" value="" style="edgeStyle=orthogonalEdgeStyle;rounded=0;orthogonalLoop=1;jettySize=auto;html=1;strokeColor=#A8201A;fontColor=default;fillColor=#FAE5C7;labelBackgroundColor=none;" edge="1" parent="1" source="1FqhIg_PzW6NsAXz2c-h-1" target="1FqhIg_PzW6NsAXz2c-h-2">
          <mxGeometry relative="1" as="geometry" />
        </mxCell>
        <mxCell id="1FqhIg_PzW6NsAXz2c-h-9" style="edgeStyle=orthogonalEdgeStyle;rounded=0;orthogonalLoop=1;jettySize=auto;html=1;strokeColor=#A8201A;fontColor=#143642;fillColor=#FAE5C7;" edge="1" parent="1" source="1FqhIg_PzW6NsAXz2c-h-1" target="1FqhIg_PzW6NsAXz2c-h-8">
          <mxGeometry relative="1" as="geometry" />
        </mxCell>
        <mxCell id="1FqhIg_PzW6NsAXz2c-h-1" value="每日&lt;br&gt;获取日线、分钟线" style="rounded=1;whiteSpace=wrap;html=1;labelBackgroundColor=none;fillColor=#FAE5C7;strokeColor=#0F8B8D;fontColor=#143642;" vertex="1" parent="1">
          <mxGeometry x="120" y="120" width="120" height="60" as="geometry" />
        </mxCell>
        <mxCell id="1FqhIg_PzW6NsAXz2c-h-2" value="每日&lt;br&gt;计算动量因子(48)&lt;br&gt;的标的" style="rounded=1;whiteSpace=wrap;html=1;labelBackgroundColor=none;fillColor=#FAE5C7;strokeColor=#0F8B8D;fontColor=#143642;" vertex="1" parent="1">
          <mxGeometry x="120" y="240" width="120" height="60" as="geometry" />
        </mxCell>
        <mxCell id="1FqhIg_PzW6NsAXz2c-h-4" value="每周&lt;br&gt;获取财报行情" style="rounded=1;whiteSpace=wrap;html=1;labelBackgroundColor=none;fillColor=#FAE5C7;strokeColor=#0F8B8D;fontColor=#143642;" vertex="1" parent="1">
          <mxGeometry x="320" y="120" width="120" height="60" as="geometry" />
        </mxCell>
        <mxCell id="1FqhIg_PzW6NsAXz2c-h-7" value="运行快照时，第一步是将代码快照保存一份" style="rounded=1;whiteSpace=wrap;html=1;labelBackgroundColor=none;fillColor=#d5e8d4;strokeColor=#82b366;" vertex="1" parent="1">
          <mxGeometry x="520" y="120" width="120" height="60" as="geometry" />
        </mxCell>
        <mxCell id="1FqhIg_PzW6NsAXz2c-h-8" value="每日&lt;br&gt;计算换手率因子(?)&lt;br&gt;的标的" style="rounded=1;whiteSpace=wrap;html=1;labelBackgroundColor=none;fillColor=#FAE5C7;strokeColor=#0F8B8D;fontColor=#143642;" vertex="1" parent="1">
          <mxGeometry x="-80" y="240" width="120" height="60" as="geometry" />
        </mxCell>
      </root>
    </mxGraphModel>
  </diagram>
</mxfile>
